<svg width="18" height="18" viewBox="0 0 18 18" fill="none" xmlns="http://www.w3.org/2000/svg">
<path d="M4.11992 17.4516H0.557422V5.99532H4.11992V17.4516ZM2.33867 4.43439C1.19492 4.43439 0.271484 3.51095 0.271484 2.37189C0.271484 1.23282 1.19492 0.309387 2.33867 0.309387C3.47773 0.309387 4.40117 1.23282 4.40117 2.37189C4.40117 3.50626 3.47773 4.43439 2.33867 4.43439ZM17.4512 17.4516H13.8934V11.8828C13.8934 10.5563 13.8699 8.84532 12.0418 8.84532C10.1902 8.84532 9.90898 10.2938 9.90898 11.7891V17.4516H6.35586V5.99532H9.76836V7.56095H9.81523C10.2887 6.66095 11.4512 5.70939 13.1809 5.70939C16.7855 5.70939 17.4512 8.08126 17.4512 11.1656V17.4516Z" fill="white"/>
</svg>
